<?xml version="1.0" encoding="utf-8"?>
<!-- Generator: Adobe Illustrator 26.0.0, SVG Export Plug-In . SVG Version: 6.00 Build 0)  -->
<svg version="1.1" id="Layer_1" xmlns="http://www.w3.org/2000/svg" xmlns:xlink="http://www.w3.org/1999/xlink" x="0px" y="0px"
	 viewBox="0 0 50 50" style="enable-background:new 0 0 50 50;" xml:space="preserve">
<style type="text/css">
	.st0{fill:#AFAFAF;stroke:#AFAFAF;stroke-miterlimit:10;}
</style>
<path class="st0" d="M20.4,2.9c-9.4,0-17,7.6-17,17s7.6,17,17,17c3.4,0,6.5-1,9.1-2.7l12.3,12.3c2.2,2.2,6.4-2,4.2-4.2L33.8,30.2
	c2.2-2.9,3.5-6.4,3.5-10.3C37.4,10.5,29.8,2.9,20.4,2.9z M20.4,6.9c7.2,0,13,5.8,13,13s-5.8,13-13,13s-13-5.8-13-13
	S13.2,6.9,20.4,6.9z"/>
</svg>
