<?xml version="1.0" encoding="utf-8"?>
<!-- Generator: Adobe Illustrator 25.4.1, SVG Export Plug-In . SVG Version: 6.00 Build 0)  -->
<svg version="1.1" id="Layer_1" xmlns="http://www.w3.org/2000/svg" xmlns:xlink="http://www.w3.org/1999/xlink" x="0px" y="0px"
	 viewBox="0 0 30 30" style="enable-background:new 0 0 30 30;" xml:space="preserve">
<style type="text/css">
	.st0{fill:#FFFFFF;}
</style>
<path class="st0" d="M15,2C7.8,2,2,7.8,2,15s5.8,13,13,13s13-5.8,13-13S22.2,2,15,2z M11.7,6h6.7c3.1,0,5.7,2.5,5.7,5.7v6.7
	c0,3.1-2.5,5.7-5.7,5.7h-6.7C8.5,24,6,21.5,6,18.3v-6.7C6,8.5,8.5,6,11.7,6z M11.7,8C9.6,8,8,9.6,8,11.7v6.7c0,2,1.6,3.7,3.7,3.7
	h6.7c2,0,3.7-1.6,3.7-3.7v-6.7c0-2-1.6-3.7-3.7-3.7H11.7z M19.7,9.7c0.4,0,0.7,0.3,0.7,0.7S20,11,19.7,11S19,10.7,19,10.3
	S19.3,9.7,19.7,9.7z M15,10c2.8,0,5,2.2,5,5s-2.2,5-5,5s-5-2.2-5-5S12.2,10,15,10z M15,12c-1.7,0-3,1.3-3,3s1.3,3,3,3s3-1.3,3-3
	S16.7,12,15,12z"/>
</svg>
