<?xml version="1.0" encoding="utf-8"?>
<!-- Generator: Adobe Illustrator 25.4.1, SVG Export Plug-In . SVG Version: 6.00 Build 0)  -->
<svg version="1.1" id="Layer_1" xmlns="http://www.w3.org/2000/svg" xmlns:xlink="http://www.w3.org/1999/xlink" x="0px" y="0px"
	 viewBox="0 0 30 30" style="enable-background:new 0 0 30 30;" xml:space="preserve">
<style type="text/css">
	.st0{fill:#FFFFFF;}
</style>
<path class="st0" d="M15,3C8.4,3,3,8.4,3,15s5.4,12,12,12s12-5.4,12-12S21.6,3,15,3z M21.5,12.5c0,0.1,0,0.3,0,0.4
	c0,4.1-3.1,8.8-8.8,8.8c-1.7,0-3.4-0.5-4.7-1.4c0.2,0,0.5,0,0.7,0c1.4,0,2.8-0.5,3.8-1.3c-1.3,0-2.5-0.9-2.9-2.1
	c0.2,0,0.4,0.1,0.6,0.1c0.3,0,0.6,0,0.8-0.1c-1.4-0.3-2.5-1.5-2.5-3c0,0,0,0,0,0C9,14,9.5,14.2,10,14.2c-0.8-0.6-1.4-1.5-1.4-2.6
	c0-0.6,0.2-1.1,0.4-1.5c1.5,1.9,3.8,3.1,6.3,3.2c-0.1-0.2-0.1-0.5-0.1-0.7c0-1.7,1.4-3.1,3.1-3.1c0.9,0,1.7,0.4,2.2,1
	c0.7-0.1,1.4-0.4,2-0.7c-0.2,0.7-0.7,1.3-1.4,1.7c0.6-0.1,1.2-0.2,1.8-0.5C22.6,11.6,22.1,12.1,21.5,12.5z"/>
</svg>
